<svg width="291" height="291" viewBox="0 0 291 291" fill="none" xmlns="http://www.w3.org/2000/svg">
<path d="M281.388 136.275C286.27 141.156 286.27 149.071 281.388 153.952L153.952 281.388C149.071 286.27 141.156 286.27 136.275 281.388L8.83884 153.952C3.95728 149.071 3.95728 141.156 8.83883 136.275L136.275 8.83883C141.156 3.95728 149.071 3.95727 153.952 8.83883L281.388 136.275ZM72.8617 204.866C72.8617 211.77 78.4581 217.366 85.3617 217.366L204.867 217.366C211.771 217.366 217.367 211.77 217.367 204.866L217.367 85.361C217.367 78.4574 211.771 72.861 204.867 72.861L85.3617 72.861C78.4581 72.861 72.8617 78.4574 72.8617 85.361L72.8617 204.866Z" fill="#E7C05D"/>
<path d="M133.376 104.114C138.764 94.7803 152.236 94.7803 157.624 104.114L187.502 155.864C192.891 165.197 186.155 176.864 175.378 176.864H115.622C104.845 176.864 98.1092 165.197 103.498 155.864L133.376 104.114Z" fill="#36D1CC"/>
</svg>
